<?xml version="1.0" standalone="no"?>
<!DOCTYPE svg PUBLIC "-//W3C//DTD SVG 20010904//EN"
 "http://www.w3.org/TR/2001/REC-SVG-20010904/DTD/svg10.dtd">
<svg version="1.0" xmlns="http://www.w3.org/2000/svg"
 width="256.000000pt" height="256.000000pt" viewBox="0 0 256.000000 256.000000"
 preserveAspectRatio="xMidYMid meet">
<metadata>
Created by potrace 1.16, written by Peter Selinger 2001-2019
</metadata>
<g transform="translate(0.000000,256.000000) scale(0.100000,-0.100000)"
fill="#000000" stroke="none">
<path d="M1 2053 c1 -334 4 -494 10 -468 15 64 50 168 65 193 8 12 12 22 9 22
-11 0 86 178 112 207 15 15 26 30 25 33 -5 11 73 102 156 182 81 78 222 184
254 190 7 2 15 6 18 9 8 10 110 60 110 54 0 -3 10 1 23 9 24 15 128 50 192 65
26 6 -134 9 -467 10 l-508 1 1 -507z"/>
<path d="M1551 2555 c3 -2 23 -7 44 -11 72 -11 295 -98 315 -123 3 -3 11 -7
18 -9 21 -4 92 -54 92 -64 0 -5 4 -7 8 -4 25 15 249 -206 330 -325 77 -115
157 -288 177 -384 3 -14 8 -37 11 -52 3 -15 7 -30 10 -32 2 -2 4 224 4 502 l0
507 -507 0 c-278 0 -504 -2 -502 -5z"/>
<path d="M1632 1933 c-6 -11 -133 -318 -282 -684 -150 -365 -276 -672 -281
-681 -8 -16 -15 -15 -77 12 -37 16 -66 33 -65 37 1 4 75 187 164 406 l162 398
-154 155 -154 154 -5 -97 -5 -98 -202 -125 c-112 -69 -203 -127 -202 -130 0
-3 91 -60 202 -126 l202 -122 3 -101 c1 -55 1 -101 -2 -101 -2 0 -140 81 -307
181 -167 99 -317 188 -334 196 -16 8 242 -259 575 -594 l605 -610 543 -1 542
-2 0 546 c0 300 -4 543 -8 540 -5 -3 -62 49 -128 115 l-119 120 -5 -47 -5 -47
-335 -198 -335 -199 -3 92 c-1 50 -1 96 1 102 3 6 95 65 205 131 111 66 201
122 202 125 0 3 -91 61 -201 129 -110 68 -203 129 -205 136 -3 6 -4 51 -2 99
l3 87 250 -151 c138 -84 266 -161 285 -172 19 -12 -89 104 -240 258 -151 153
-276 280 -277 282 -1 2 -6 -5 -11 -15z"/>
<path d="M0 507 l0 -507 508 1 507 0 -70 19 c-38 10 -83 24 -100 31 -16 6 -35
13 -42 15 -24 5 -153 67 -153 74 0 4 -6 7 -13 7 -30 0 -180 114 -278 212 -110
110 -181 206 -241 326 -41 81 -94 225 -102 280 -4 21 -9 41 -11 44 -3 2 -5
-224 -5 -502z"/>
</g>
</svg>
